<svg width="20" height="20" viewBox="0 0 20 20" fill="none" xmlns="http://www.w3.org/2000/svg">
<path fill-rule="evenodd" clip-rule="evenodd" d="M9.66699 14.083C9.58366 14.083 9.50033 13.9997 9.41699 13.9163L6.08366 10.583C5.75033 10.2497 5.75033 9.74967 6.08366 9.41634C6.41699 9.08301 6.91699 9.08301 7.25033 9.41634L9.16699 11.333V1.66634C9.16699 1.16634 9.50033 0.833008 10.0003 0.833008C10.5003 0.833008 10.8337 1.16634 10.8337 1.66634V11.333L12.7503 9.41634C13.0837 9.08301 13.5837 9.08301 13.917 9.41634C14.2503 9.74967 14.2503 10.2497 13.917 10.583L10.5837 13.9163C10.542 13.958 10.5003 13.9788 10.4587 13.9997C10.417 14.0205 10.3753 14.0413 10.3337 14.083C10.2503 14.1663 10.0837 14.1663 10.0003 14.1663C9.91699 14.1663 9.75033 14.1663 9.66699 14.083ZM18.3337 16.6663V14.1663C18.3337 13.6663 18.0003 13.333 17.5003 13.333C17.0003 13.333 16.667 13.6663 16.667 14.1663V16.6663C16.667 17.1663 16.3337 17.4997 15.8337 17.4997H4.16699C3.66699 17.4997 3.33366 17.1663 3.33366 16.6663V14.1663C3.33366 13.6663 3.00033 13.333 2.50033 13.333C2.00033 13.333 1.66699 13.6663 1.66699 14.1663V16.6663C1.66699 18.083 2.75033 19.1663 4.16699 19.1663H15.8337C17.2503 19.1663 18.3337 18.083 18.3337 16.6663Z" fill="#9C9FA1"/>
<mask id="mask0_10294_17457" style="mask-type:luminance" maskUnits="userSpaceOnUse" x="1" y="0" width="18" height="20">
<path fill-rule="evenodd" clip-rule="evenodd" d="M9.66699 14.083C9.58366 14.083 9.50033 13.9997 9.41699 13.9163L6.08366 10.583C5.75033 10.2497 5.75033 9.74967 6.08366 9.41634C6.41699 9.08301 6.91699 9.08301 7.25033 9.41634L9.16699 11.333V1.66634C9.16699 1.16634 9.50033 0.833008 10.0003 0.833008C10.5003 0.833008 10.8337 1.16634 10.8337 1.66634V11.333L12.7503 9.41634C13.0837 9.08301 13.5837 9.08301 13.917 9.41634C14.2503 9.74967 14.2503 10.2497 13.917 10.583L10.5837 13.9163C10.542 13.958 10.5003 13.9788 10.4587 13.9997C10.417 14.0205 10.3753 14.0413 10.3337 14.083C10.2503 14.1663 10.0837 14.1663 10.0003 14.1663C9.91699 14.1663 9.75033 14.1663 9.66699 14.083ZM18.3337 16.6663V14.1663C18.3337 13.6663 18.0003 13.333 17.5003 13.333C17.0003 13.333 16.667 13.6663 16.667 14.1663V16.6663C16.667 17.1663 16.3337 17.4997 15.8337 17.4997H4.16699C3.66699 17.4997 3.33366 17.1663 3.33366 16.6663V14.1663C3.33366 13.6663 3.00033 13.333 2.50033 13.333C2.00033 13.333 1.66699 13.6663 1.66699 14.1663V16.6663C1.66699 18.083 2.75033 19.1663 4.16699 19.1663H15.8337C17.2503 19.1663 18.3337 18.083 18.3337 16.6663Z" fill="white"/>
</mask>
<g mask="url(#mask0_10294_17457)">
<rect width="20" height="20" fill="#9C9FA1"/>
</g>
</svg>
